<mxfile host="app.diagrams.net" modified="2024-02-06T14:54:47.521Z" agent="Mozilla/5.0 (Windows NT 10.0; Win64; x64) AppleWebKit/537.36 (KHTML, like Gecko) Chrome/121.0.0.0 Safari/537.36" etag="z9tiAZfNiwWLh_JGqtg5" version="23.1.1" type="github">
  <diagram name="Page-1" id="IqjxEarcez34D-clfagK">
    <mxGraphModel dx="2074" dy="1098" grid="1" gridSize="10" guides="1" tooltips="1" connect="1" arrows="1" fold="1" page="1" pageScale="1" pageWidth="850" pageHeight="1100" math="0" shadow="0">
      <root>
        <mxCell id="0" />
        <mxCell id="1" parent="0" />
        <mxCell id="VtvXya0m7FU-JmIOpC0I-1" value="Is there coffee?" style="rhombus;whiteSpace=wrap;html=1;" vertex="1" parent="1">
          <mxGeometry x="40" y="20" width="110" height="120" as="geometry" />
        </mxCell>
        <mxCell id="VtvXya0m7FU-JmIOpC0I-2" value="" style="endArrow=classic;html=1;rounded=0;exitX=0.5;exitY=1;exitDx=0;exitDy=0;" edge="1" parent="1" source="VtvXya0m7FU-JmIOpC0I-1">
          <mxGeometry width="50" height="50" relative="1" as="geometry">
            <mxPoint x="400" y="590" as="sourcePoint" />
            <mxPoint x="95" y="210" as="targetPoint" />
          </mxGeometry>
        </mxCell>
        <mxCell id="VtvXya0m7FU-JmIOpC0I-3" value="" style="endArrow=classic;html=1;rounded=0;exitX=1;exitY=0.5;exitDx=0;exitDy=0;" edge="1" parent="1" source="VtvXya0m7FU-JmIOpC0I-1">
          <mxGeometry width="50" height="50" relative="1" as="geometry">
            <mxPoint x="400" y="590" as="sourcePoint" />
            <mxPoint x="240" y="80" as="targetPoint" />
          </mxGeometry>
        </mxCell>
        <mxCell id="VtvXya0m7FU-JmIOpC0I-4" value="No" style="text;html=1;align=center;verticalAlign=middle;resizable=0;points=[];autosize=1;strokeColor=none;fillColor=none;" vertex="1" parent="1">
          <mxGeometry x="180" y="58" width="40" height="30" as="geometry" />
        </mxCell>
        <mxCell id="VtvXya0m7FU-JmIOpC0I-5" value="Yes" style="text;html=1;align=center;verticalAlign=middle;resizable=0;points=[];autosize=1;strokeColor=none;fillColor=none;" vertex="1" parent="1">
          <mxGeometry x="100" y="158" width="40" height="30" as="geometry" />
        </mxCell>
        <mxCell id="VtvXya0m7FU-JmIOpC0I-6" value="Is there instant coffee?" style="rhombus;whiteSpace=wrap;html=1;" vertex="1" parent="1">
          <mxGeometry x="370" y="20" width="120" height="120" as="geometry" />
        </mxCell>
        <mxCell id="VtvXya0m7FU-JmIOpC0I-7" value="" style="endArrow=classic;html=1;rounded=0;" edge="1" parent="1">
          <mxGeometry width="50" height="50" relative="1" as="geometry">
            <mxPoint x="430" y="138" as="sourcePoint" />
            <mxPoint x="430" y="210" as="targetPoint" />
          </mxGeometry>
        </mxCell>
        <mxCell id="VtvXya0m7FU-JmIOpC0I-8" value="" style="endArrow=classic;html=1;rounded=0;" edge="1" parent="1">
          <mxGeometry width="50" height="50" relative="1" as="geometry">
            <mxPoint x="490" y="80" as="sourcePoint" />
            <mxPoint x="560" y="80" as="targetPoint" />
            <Array as="points" />
          </mxGeometry>
        </mxCell>
        <mxCell id="VtvXya0m7FU-JmIOpC0I-9" value="No" style="text;html=1;align=center;verticalAlign=middle;resizable=0;points=[];autosize=1;strokeColor=none;fillColor=none;" vertex="1" parent="1">
          <mxGeometry x="490" y="48" width="40" height="30" as="geometry" />
        </mxCell>
        <mxCell id="VtvXya0m7FU-JmIOpC0I-10" value="Yes" style="text;html=1;align=center;verticalAlign=middle;resizable=0;points=[];autosize=1;strokeColor=none;fillColor=none;" vertex="1" parent="1">
          <mxGeometry x="430" y="148" width="40" height="30" as="geometry" />
        </mxCell>
        <mxCell id="VtvXya0m7FU-JmIOpC0I-15" value="Is it cold outside?" style="rhombus;whiteSpace=wrap;html=1;" vertex="1" parent="1">
          <mxGeometry x="35" y="360" width="110" height="120" as="geometry" />
        </mxCell>
        <mxCell id="VtvXya0m7FU-JmIOpC0I-16" value="Am I hungry?" style="rhombus;whiteSpace=wrap;html=1;" vertex="1" parent="1">
          <mxGeometry x="40" y="650" width="110" height="120" as="geometry" />
        </mxCell>
        <mxCell id="VtvXya0m7FU-JmIOpC0I-17" value="" style="endArrow=classic;html=1;rounded=0;" edge="1" parent="1">
          <mxGeometry width="50" height="50" relative="1" as="geometry">
            <mxPoint x="90" y="480" as="sourcePoint" />
            <mxPoint x="90" y="550" as="targetPoint" />
          </mxGeometry>
        </mxCell>
        <mxCell id="VtvXya0m7FU-JmIOpC0I-18" value="" style="endArrow=classic;html=1;rounded=0;" edge="1" parent="1">
          <mxGeometry width="50" height="50" relative="1" as="geometry">
            <mxPoint x="145" y="420" as="sourcePoint" />
            <mxPoint x="220" y="420" as="targetPoint" />
          </mxGeometry>
        </mxCell>
        <mxCell id="VtvXya0m7FU-JmIOpC0I-19" value="No" style="text;html=1;align=center;verticalAlign=middle;resizable=0;points=[];autosize=1;strokeColor=none;fillColor=none;" vertex="1" parent="1">
          <mxGeometry x="160" y="388" width="40" height="30" as="geometry" />
        </mxCell>
        <mxCell id="VtvXya0m7FU-JmIOpC0I-20" value="Yes" style="text;html=1;align=center;verticalAlign=middle;resizable=0;points=[];autosize=1;strokeColor=none;fillColor=none;" vertex="1" parent="1">
          <mxGeometry x="90" y="488" width="40" height="30" as="geometry" />
        </mxCell>
        <mxCell id="VtvXya0m7FU-JmIOpC0I-21" value="" style="endArrow=classic;html=1;rounded=0;" edge="1" parent="1">
          <mxGeometry width="50" height="50" relative="1" as="geometry">
            <mxPoint x="95" y="770" as="sourcePoint" />
            <mxPoint x="95" y="830" as="targetPoint" />
          </mxGeometry>
        </mxCell>
        <mxCell id="VtvXya0m7FU-JmIOpC0I-22" value="" style="endArrow=classic;html=1;rounded=0;" edge="1" parent="1">
          <mxGeometry width="50" height="50" relative="1" as="geometry">
            <mxPoint x="150" y="710" as="sourcePoint" />
            <mxPoint x="220" y="710" as="targetPoint" />
          </mxGeometry>
        </mxCell>
        <mxCell id="VtvXya0m7FU-JmIOpC0I-23" value="No" style="text;html=1;align=center;verticalAlign=middle;resizable=0;points=[];autosize=1;strokeColor=none;fillColor=none;" vertex="1" parent="1">
          <mxGeometry x="160" y="668" width="40" height="30" as="geometry" />
        </mxCell>
        <mxCell id="VtvXya0m7FU-JmIOpC0I-24" value="Yes" style="text;html=1;align=center;verticalAlign=middle;resizable=0;points=[];autosize=1;strokeColor=none;fillColor=none;" vertex="1" parent="1">
          <mxGeometry x="110" y="778" width="40" height="30" as="geometry" />
        </mxCell>
        <mxCell id="VtvXya0m7FU-JmIOpC0I-27" value="Is it hot outside?" style="rhombus;whiteSpace=wrap;html=1;" vertex="1" parent="1">
          <mxGeometry x="370" y="360" width="110" height="120" as="geometry" />
        </mxCell>
        <mxCell id="VtvXya0m7FU-JmIOpC0I-28" value="Do I need gas?" style="rhombus;whiteSpace=wrap;html=1;" vertex="1" parent="1">
          <mxGeometry x="375" y="650" width="110" height="120" as="geometry" />
        </mxCell>
        <mxCell id="VtvXya0m7FU-JmIOpC0I-29" value="" style="endArrow=classic;html=1;rounded=0;" edge="1" parent="1">
          <mxGeometry width="50" height="50" relative="1" as="geometry">
            <mxPoint x="425" y="480" as="sourcePoint" />
            <mxPoint x="425" y="550" as="targetPoint" />
          </mxGeometry>
        </mxCell>
        <mxCell id="VtvXya0m7FU-JmIOpC0I-30" value="" style="endArrow=classic;html=1;rounded=0;" edge="1" parent="1">
          <mxGeometry width="50" height="50" relative="1" as="geometry">
            <mxPoint x="480" y="420" as="sourcePoint" />
            <mxPoint x="555" y="420" as="targetPoint" />
          </mxGeometry>
        </mxCell>
        <mxCell id="VtvXya0m7FU-JmIOpC0I-31" value="No" style="text;html=1;align=center;verticalAlign=middle;resizable=0;points=[];autosize=1;strokeColor=none;fillColor=none;" vertex="1" parent="1">
          <mxGeometry x="495" y="388" width="40" height="30" as="geometry" />
        </mxCell>
        <mxCell id="VtvXya0m7FU-JmIOpC0I-32" value="Yes" style="text;html=1;align=center;verticalAlign=middle;resizable=0;points=[];autosize=1;strokeColor=none;fillColor=none;" vertex="1" parent="1">
          <mxGeometry x="425" y="488" width="40" height="30" as="geometry" />
        </mxCell>
        <mxCell id="VtvXya0m7FU-JmIOpC0I-33" value="" style="endArrow=classic;html=1;rounded=0;" edge="1" parent="1">
          <mxGeometry width="50" height="50" relative="1" as="geometry">
            <mxPoint x="430" y="770" as="sourcePoint" />
            <mxPoint x="430" y="830" as="targetPoint" />
          </mxGeometry>
        </mxCell>
        <mxCell id="VtvXya0m7FU-JmIOpC0I-34" value="" style="endArrow=classic;html=1;rounded=0;" edge="1" parent="1">
          <mxGeometry width="50" height="50" relative="1" as="geometry">
            <mxPoint x="485" y="710" as="sourcePoint" />
            <mxPoint x="555" y="710" as="targetPoint" />
          </mxGeometry>
        </mxCell>
        <mxCell id="VtvXya0m7FU-JmIOpC0I-35" value="No" style="text;html=1;align=center;verticalAlign=middle;resizable=0;points=[];autosize=1;strokeColor=none;fillColor=none;" vertex="1" parent="1">
          <mxGeometry x="495" y="668" width="40" height="30" as="geometry" />
        </mxCell>
        <mxCell id="VtvXya0m7FU-JmIOpC0I-36" value="Yes" style="text;html=1;align=center;verticalAlign=middle;resizable=0;points=[];autosize=1;strokeColor=none;fillColor=none;" vertex="1" parent="1">
          <mxGeometry x="445" y="778" width="40" height="30" as="geometry" />
        </mxCell>
      </root>
    </mxGraphModel>
  </diagram>
</mxfile>
